<svg id="Layer_1" data-name="Layer 1" xmlns="http://www.w3.org/2000/svg" viewBox="0 0 114.38 54.16">
  <defs>
    <style>
      .cls-1 {
        fill: #303d00;
        fill-rule: evenodd;
      }
    </style>
  </defs>
  <path class="cls-1" d="M10.11,44.94C9.44,47.19,6.29,48.09,0,47.64a183.18,183.18,0,0,0,41.12-36.4c3.37,5.16,5.62,7.64,6.75,7.86C55.06,15.28,61.12,9.21,67,0c4.27,7.64,8.31,12.13,12.58,14.16,2.7,1.35,5.62.22,9-3.82,7.19,10.78,14.83,18.87,24,25.17A59,59,0,0,1,87.87,22.25a128.39,128.39,0,0,0,26.51,27.41,219.75,219.75,0,0,1-40.9-27.19c-1.79-1.8-3.82-5.84-5.84-12.81-2,7.42-4,12.14-6.74,14.61A73.43,73.43,0,0,0,82,38.65a24.77,24.77,0,0,1-15-1.57A100.93,100.93,0,0,0,83.6,54.16C70.34,44.27,57.3,33.71,42.92,20.67c-2,7.2-5.39,12.14-10.34,15.29,3.15,5.61,4.72,9.66,4.72,12.58-2-1.35-5.61-3.82-11-7.87.9,1.35,0,1.35-3.14,0,2.47,5.62,2.92,9.67,1.57,13C22,51.91,17.3,49.21,10.11,44.94Z"/>
</svg>
